<?xml version="1.0" standalone="no"?>
<!DOCTYPE svg PUBLIC "-//W3C//DTD SVG 20010904//EN"
 "http://www.w3.org/TR/2001/REC-SVG-20010904/DTD/svg10.dtd">
<svg version="1.0" xmlns="http://www.w3.org/2000/svg"
 width="700.000000pt" height="700.000000pt" viewBox="0 0 700.000000 700.000000"
 preserveAspectRatio="xMidYMid meet">

<g transform="translate(0.000000,700.000000) scale(0.100000,-0.100000)"
fill="#000000" stroke="none">
<path d="M2407 5684 c-3 -4 -1 -12 6 -19 7 -7 128 -130 269 -273 l258 -262 35
21 c19 12 35 25 35 31 0 5 4 7 9 4 5 -4 11 -2 13 3 1 5 35 34 73 65 39 31 77
61 84 68 8 7 38 29 65 50 28 20 58 43 66 52 38 36 106 86 120 86 8 0 -1 -10
-20 -22 -19 -13 -39 -28 -45 -35 -20 -25 -150 -123 -163 -123 -7 0 -10 -4 -7
-10 3 -5 2 -10 -2 -10 -5 0 -24 -13 -43 -30 -19 -16 -46 -39 -60 -50 -14 -12
-37 -31 -51 -43 -14 -12 -35 -27 -45 -34 -15 -9 87 -12 469 -12 268 -1 487 1
487 4 0 3 -11 23 -25 45 -14 22 -25 42 -25 45 0 3 -5 11 -10 18 -21 24 -62 91
-71 114 -5 13 -14 23 -20 23 -7 0 -9 3 -6 6 4 4 -2 19 -13 34 -11 16 -20 31
-20 34 0 4 -5 12 -10 19 -21 24 -62 91 -71 114 -5 13 -14 23 -20 23 -7 0 -9 3
-6 6 4 4 -3 20 -14 35 l-20 29 -608 0 c-334 0 -610 -3 -614 -6z m1188 -59
c-28 -25 -53 -45 -56 -45 -3 0 -21 -13 -39 -30 -18 -16 -40 -30 -48 -30 -8 0
8 17 36 38 27 20 69 54 92 75 23 20 47 37 53 37 6 0 -11 -20 -38 -45z"/>
<path d="M4770 5307 c0 -27 31 -182 40 -202 5 -11 16 -54 24 -95 8 -41 17 -84
20 -95 6 -19 20 -81 71 -305 13 -58 33 -145 45 -195 11 -49 23 -99 25 -110 3
-11 8 -33 11 -50 4 -16 11 -33 16 -36 5 -3 -7 -25 -27 -50 -19 -24 -64 -82
-100 -129 -36 -47 -97 -125 -135 -175 -38 -49 -115 -148 -170 -220 l-100 -130
0 -525 0 -525 -251 -283 -251 -282 -524 0 -524 0 0 1030 c0 965 -1 1032 -17
1057 -10 15 -12 24 -5 20 9 -7 12 104 12 542 0 303 -3 551 -6 551 -4 0 -75
-66 -158 -148 -83 -81 -199 -194 -258 -252 l-108 -104 0 -542 c0 -329 -4 -544
-9 -546 -6 -1 -36 -24 -68 -50 -32 -26 -151 -124 -266 -217 -114 -93 -212
-171 -217 -173 -7 -2 -9 -199 -8 -570 l3 -567 96 87 c52 48 129 116 169 152
41 36 121 109 179 162 58 53 109 94 113 92 4 -3 8 -247 8 -543 l0 -539 -72
-61 c-40 -33 -138 -116 -218 -183 -80 -68 -176 -147 -213 -177 -37 -30 -67
-58 -67 -63 0 -4 612 -8 1360 -8 l1359 0 298 327 c163 181 378 417 478 526 99
109 184 206 189 214 5 9 5 708 1 1614 l-8 1598 -41 6 c-22 4 -45 11 -51 15 -5
4 -48 16 -95 25 -47 9 -89 20 -95 24 -5 5 -48 16 -95 26 -47 9 -89 21 -95 25
-5 4 -39 13 -75 20 -36 7 -69 16 -75 20 -5 4 -26 11 -45 15 -19 3 -43 9 -52
11 -11 3 -18 0 -18 -9z m-2311 -767 c29 -40 22 -38 -20 6 -18 19 -27 32 -18
29 9 -3 26 -19 38 -35z m101 -121 c0 -9 -39 28 -60 56 -8 11 3 4 23 -14 20
-19 37 -38 37 -42z m82 -94 c9 -16 6 -16 -17 5 -15 14 -32 34 -37 45 -9 16 -6
16 17 -5 15 -14 32 -34 37 -45z m98 -113 c0 -3 -16 9 -35 28 -19 19 -35 38
-35 43 0 6 16 -7 35 -27 19 -21 35 -40 35 -44z m91 -104 c46 -50 75 -86 64
-80 -11 6 -31 25 -45 43 -14 18 -45 54 -69 81 -24 26 -41 48 -38 48 2 0 42
-41 88 -92z m-371 -543 c0 -2 -10 -9 -22 -15 -22 -11 -22 -10 -4 4 21 17 26
19 26 11z m2107 -1327 c-3 -8 -6 -5 -6 6 -1 11 2 17 5 13 3 -3 4 -12 1 -19z
m-487 -342 c0 -3 -4 -8 -10 -11 -5 -3 -10 -1 -10 4 0 6 5 11 10 11 6 0 10 -2
10 -4z m627 -58 c-3 -8 -6 -5 -6 6 -1 11 2 17 5 13 3 -3 4 -12 1 -19z m-427 2
c0 -5 -5 -10 -11 -10 -5 0 -7 5 -4 10 3 6 8 10 11 10 2 0 4 -4 4 -10z m57 -16
c-3 -3 -12 -4 -19 -1 -8 3 -5 6 6 6 11 1 17 -2 13 -5z m50 -10 c-3 -3 -12 -4
-19 -1 -8 3 -5 6 6 6 11 1 17 -2 13 -5z m50 -10 c-3 -3 -12 -4 -19 -1 -8 3 -5
6 6 6 11 1 17 -2 13 -5z m50 -20 c-3 -3 -12 -4 -19 -1 -8 3 -5 6 6 6 11 1 17
-2 13 -5z m50 -10 c-3 -3 -12 -4 -19 -1 -8 3 -5 6 6 6 11 1 17 -2 13 -5z m103
-24 c0 -5 -4 -10 -10 -10 -5 0 -10 5 -10 10 0 6 5 10 10 10 6 0 10 -4 10 -10z
m110 -15 c0 -8 -7 -15 -15 -15 -13 0 -14 3 -3 15 16 18 18 18 18 0z"/>
<path d="M4690 5298 c-25 -6 -49 -13 -55 -18 -5 -4 -41 -13 -80 -20 -38 -7
-74 -16 -80 -20 -5 -5 -50 -16 -100 -26 -49 -9 -94 -20 -100 -24 -5 -4 -54
-16 -107 -26 -54 -10 -98 -21 -98 -26 0 -4 -11 -8 -24 -8 -39 0 -40 -17 -4
-54 18 -18 60 -64 93 -102 33 -37 74 -84 92 -103 18 -20 40 -45 50 -57 18 -21
134 -151 183 -205 l24 -27 14 36 c7 21 21 60 29 87 9 28 19 55 23 60 4 6 16
39 26 75 10 36 20 67 24 70 3 3 14 30 23 60 22 74 55 170 68 195 8 18 50 147
46 144 -1 -1 -22 -6 -47 -11z"/>
</g>
</svg>
